<svg xmlns="http://www.w3.org/2000/svg" width="495" height="260" viewBox="0 0 495 260" fill="none" role="img">
<title>Combined Stats</title>
<style>
	.header { font: 600 14px 'Segoe UI', Ubuntu, Sans-Serif; fill: #fff; }
	.stat { font: 400 12px 'Segoe UI', Ubuntu, Sans-Serif; fill: #c9d1d9; }
	.bold { font-weight: 700; font-size: 12px; fill: #9f9f9f; }
	.icon { fill: #79ff97; display: block; }
	.legend-label { font: 400 10px 'Segoe UI', Ubuntu, Sans-Serif; fill: #8b949e; }
	.stagger { opacity: 0; animation: fadeInAnimation 0.3s ease-in-out forwards; }
	@keyframes fadeInAnimation { from { opacity: 0; } to { opacity: 1; } }
</style>
<rect data-testid="card-bg" x="0.5" y="0.5" rx="4.5" height="99%" width="494" fill="#151515" stroke="#e4e2e2" stroke-opacity="0.2"/>
<g data-testid="card-title" transform="translate(25, 25)">
	<text x="0" y="0" class="header" data-testid="header">Stats (across all platforms)</text>
</g>
<g class="stagger" style="animation-delay: 450ms" transform="translate(25, 45)"><svg data-testid="icon" class="icon" viewBox="0 0 16 16" version="1.1" width="16" height="16"><path fill-rule="evenodd" d="M1.643 3.143L.427 1.927A.25.25 0 000 2.104V5.75c0 .138.112.25.25.25h3.646a.25.25 0 00.177-.427L2.715 4.215a6.5 6.5 0 11-1.18 4.458.75.75 0 10-1.493.154 8.001 8.001 0 101.6-5.684zM7.75 4a.75.75 0 01.75.75v2.992l2.028.812a.75.75 0 01-.557 1.392l-2.5-1A.75.75 0 017 8.25v-3.5A.75.75 0 017.75 4z"/></svg><text class="stat" x="25" y="12.5">Total Commits</text><rect x="210" y="0" width="76" height="16" rx="2" fill="#238636"><title>GitHub: 437</title></rect><rect x="286" y="0" width="74" height="16" rx="2" fill="#0078d4"><title>Azure DevOps: 415</title></rect><text class="stat bold" x="445" y="12.5" text-anchor="end" data-testid="value">852</text></g><g class="stagger" style="animation-delay: 600ms" transform="translate(25, 73)"><svg data-testid="icon" class="icon" viewBox="0 0 16 16" version="1.1" width="16" height="16"><path fill-rule="evenodd" d="M7.177 3.073L9.573.677A.25.25 0 0110 .854v4.792a.25.25 0 01-.427.177L7.177 3.427a.25.25 0 010-.354zM3.75 2.5a.75.75 0 100 1.5.75.75 0 000-1.5zm-2.25.75a2.25 2.25 0 113 2.122v5.256a2.251 2.251 0 11-1.5 0V5.372A2.25 2.25 0 011.5 3.25zM11 2.5h-1V4h1a1 1 0 011 1v5.628a2.251 2.251 0 101.5 0V5A2.5 2.5 0 0011 2.5zm1 10.25a.75.75 0 111.5 0 .75.75 0 01-1.5 0zM3.75 12a.75.75 0 100 1.5.75.75 0 000-1.5z"/></svg><text class="stat" x="25" y="12.5">Total PRs / MRs</text><rect x="210" y="0" width="93" height="16" rx="2" fill="#238636"><title>GitHub: 52</title></rect><rect x="303" y="0" width="57" height="16" rx="2" fill="#0078d4"><title>Azure DevOps: 31</title></rect><text class="stat bold" x="445" y="12.5" text-anchor="end" data-testid="value">83</text></g><g class="stagger" style="animation-delay: 750ms" transform="translate(25, 101)"><svg data-testid="icon" class="icon" viewBox="0 0 16 16" version="1.1" width="16" height="16"><path fill-rule="evenodd" d="M8 1.5a6.5 6.5 0 100 13 6.5 6.5 0 000-13zM0 8a8 8 0 1116 0A8 8 0 010 8zm9 3a1 1 0 11-2 0 1 1 0 012 0zm-.25-6.25a.75.75 0 00-1.5 0v3.5a.75.75 0 001.5 0v-3.5z"/></svg><text class="stat" x="25" y="12.5">Total Issues / Work Items</text><rect x="210" y="0" width="150" height="16" rx="2" fill="#238636"><title>GitHub: 40</title></rect><text class="stat bold" x="445" y="12.5" text-anchor="end" data-testid="value">40</text></g><g class="stagger" style="animation-delay: 900ms" transform="translate(25, 129)"><svg data-testid="icon" class="icon" viewBox="0 0 16 16" version="1.1" width="16" height="16"><path fill-rule="evenodd" d="M2 2.5A2.5 2.5 0 014.5 0h8.75a.75.75 0 01.75.75v12.5a.75.75 0 01-.75.75h-2.5a.75.75 0 110-1.5h1.75v-2h-8a1 1 0 00-1 1v.17a2.5 2.5 0 01-.286-.958A2.495 2.495 0 012 11.5v-9zm10.5-1h-8a1 1 0 00-1 1v6.708A2.486 2.486 0 014.5 9h8V1.5z"/></svg><text class="stat" x="25" y="12.5">Total Repositories</text><rect x="210" y="0" width="122" height="16" rx="2" fill="#238636"><title>GitHub: 18</title></rect><rect x="332" y="0" width="28" height="16" rx="2" fill="#0078d4"><title>Azure DevOps: 4</title></rect><text class="stat bold" x="445" y="12.5" text-anchor="end" data-testid="value">22</text></g><g class="stagger" style="animation-delay: 1050ms" transform="translate(25, 157)"><svg data-testid="icon" class="icon" viewBox="0 0 16 16" version="1.1" width="16" height="16"><path fill-rule="evenodd" d="M4.72 3.22a.75.75 0 011.06 1.06L2.06 8l3.72 3.72a.75.75 0 11-1.06 1.06L.47 8.53a.75.75 0 010-1.06l4.25-4.25zm6.56 0a.75.75 0 10-1.06 1.06L13.94 8l-3.72 3.72a.75.75 0 101.06 1.06l4.25-4.25a.75.75 0 000-1.06l-4.25-4.25z"/></svg><text class="stat" x="25" y="12.5">Lines of Code</text><rect x="210" y="0" width="16" height="16" rx="2" fill="#238636"><title>GitHub: 3056</title></rect><rect x="226" y="0" width="134" height="16" rx="2" fill="#0078d4"><title>Azure DevOps: 24008</title></rect><text class="stat bold" x="445" y="12.5" text-anchor="end" data-testid="value">27.1K</text></g>
<rect x="25" y="230" width="10" height="10" rx="2" fill="#238636"/><text x="39" y="239" class="legend-label">GitHub</text><rect x="93" y="230" width="10" height="10" rx="2" fill="#e24329"/><text x="107" y="239" class="legend-label">GitLab</text><rect x="161" y="230" width="10" height="10" rx="2" fill="#0078d4"/><text x="175" y="239" class="legend-label">Azure DevOps</text>
</svg>