<svg xmlns="http://www.w3.org/2000/svg" width="495" height="260" viewBox="0 0 495 260" fill="none" role="img">
<title>Top Languages</title>
<style>
	.header { font: 600 14px 'Segoe UI', Ubuntu, Sans-Serif; fill: #fff; }
	.stat { font: 400 12px 'Segoe UI', Ubuntu, Sans-Serif; fill: #c9d1d9; }
	.bold { font-weight: 700; font-size: 12px; fill: #9f9f9f; }
	.icon { fill: #79ff97; display: block; }
	.legend-label { font: 400 10px 'Segoe UI', Ubuntu, Sans-Serif; fill: #8b949e; }
	.stagger { opacity: 0; animation: fadeInAnimation 0.3s ease-in-out forwards; }
	@keyframes fadeInAnimation { from { opacity: 0; } to { opacity: 1; } }
</style>
<rect data-testid="card-bg" x="0.5" y="0.5" rx="4.5" height="99%" width="494" fill="#151515" stroke="#e4e2e2" stroke-opacity="0.2"/>
<g data-testid="card-title" transform="translate(25, 25)">
	<text x="0" y="0" class="header" data-testid="header">Top Languages (across all platforms)</text>
</g>
<g class="stagger" style="animation-delay: 450ms" transform="translate(25, 45)"><circle cx="7" cy="8" r="6" fill="#00ADD8"/><text class="stat" x="20" y="12.5">Go</text><rect x="210" y="0" width="120" height="16" rx="2" fill="#238636"><title>GitHub: 80.5%</title></rect><rect x="330" y="0" width="30" height="16" rx="2" fill="#0078d4"><title>Azure DevOps: 19.5%</title></rect><text class="stat bold" x="445" y="12.5" text-anchor="end">48.1%</text></g><g class="stagger" style="animation-delay: 600ms" transform="translate(25, 73)"><circle cx="7" cy="8" r="6" fill="#3178c6"/><text class="stat" x="20" y="12.5">TypeScript</text><rect x="210" y="0" width="6" height="16" rx="2" fill="#238636"><title>GitHub: 10.3%</title></rect><rect x="216" y="0" width="61" height="16" rx="2" fill="#0078d4"><title>Azure DevOps: 89.7%</title></rect><text class="stat bold" x="445" y="12.5" text-anchor="end">21.5%</text></g><g class="stagger" style="animation-delay: 750ms" transform="translate(25, 101)"><circle cx="7" cy="8" r="6" fill="#f1e05a"/><text class="stat" x="20" y="12.5">JavaScript</text><rect x="210" y="0" width="5" height="16" rx="2" fill="#238636"><title>GitHub: 12.9%</title></rect><rect x="215" y="0" width="40" height="16" rx="2" fill="#0078d4"><title>Azure DevOps: 87.1%</title></rect><text class="stat bold" x="445" y="12.5" text-anchor="end">14.5%</text></g><g class="stagger" style="animation-delay: 900ms" transform="translate(25, 129)"><circle cx="7" cy="8" r="6" fill="#E3F171"/><text class="stat" x="20" y="12.5">Pascal</text><rect x="210" y="0" width="25" height="16" rx="2" fill="#238636"><title>GitHub: 100.0%</title></rect><text class="stat bold" x="445" y="12.5" text-anchor="end">8.2%</text></g><g class="stagger" style="animation-delay: 1050ms" transform="translate(25, 157)"><circle cx="7" cy="8" r="6" fill="#4F5D95"/><text class="stat" x="20" y="12.5">PHP</text><rect x="210" y="0" width="23" height="16" rx="2" fill="#0078d4"><title>Azure DevOps: 100.0%</title></rect><text class="stat bold" x="445" y="12.5" text-anchor="end">7.7%</text></g>
<rect x="25" y="230" width="10" height="10" rx="2" fill="#238636"/><text x="39" y="239" class="legend-label">GitHub</text><rect x="93" y="230" width="10" height="10" rx="2" fill="#e24329"/><text x="107" y="239" class="legend-label">GitLab</text><rect x="161" y="230" width="10" height="10" rx="2" fill="#0078d4"/><text x="175" y="239" class="legend-label">Azure DevOps</text>
</svg>