<?xml version="1.0" encoding="UTF-8" standalone="no"?>
<svg
   id="Layer_1"
   viewBox="0 0 2400 2400"
   version="1.1"
   sodipodi:docname="owasp.svg"
   inkscape:version="1.3.2 (091e20e, 2023-11-25, custom)"
   xmlns:inkscape="http://www.inkscape.org/namespaces/inkscape"
   xmlns:sodipodi="http://sodipodi.sourceforge.net/DTD/sodipodi-0.dtd"
   xmlns="http://www.w3.org/2000/svg"
   xmlns:svg="http://www.w3.org/2000/svg">
  <sodipodi:namedview
     id="namedview3"
     pagecolor="#505050"
     bordercolor="#eeeeee"
     borderopacity="1"
     inkscape:showpageshadow="0"
     inkscape:pageopacity="0"
     inkscape:pagecheckerboard="0"
     inkscape:deskcolor="#505050"
     inkscape:zoom="0.25367456"
     inkscape:cx="1704.9404"
     inkscape:cy="1208.241"
     inkscape:window-width="1920"
     inkscape:window-height="1057"
     inkscape:window-x="1912"
     inkscape:window-y="-8"
     inkscape:window-maximized="1"
     inkscape:current-layer="Layer_1" />
  <defs
     id="defs1">
    <style
       id="style1">.cls-1{fill:#fff;stroke-width:0px;}</style>
  </defs>
  <g
     id="g3"
     transform="translate(-0.699926,59.356726)">
    <path
       class="cls-1"
       d="m 1121.9529,35.743547 c -604.05926,0 -1093.733748,489.692783 -1093.733748,1093.733753 0,604.041 489.692778,1093.7338 1093.733748,1093.7338 604.0411,0 1093.7339,-489.6928 1093.7339,-1093.7338 0,-604.04097 -489.6928,-1093.733753 -1093.7339,-1093.733753 z m 0,2018.999653 c -511.00042,0 -925.24753,-414.2471 -925.24753,-925.2476 0,-511.00041 414.24711,-925.24755 925.24753,-925.24755 511.0006,0 925.2477,414.24714 925.2477,925.24755 0,511.0005 -414.2471,925.2476 -925.2477,925.2476 z"
       id="path1" />
    <path
       class="cls-1"
       d="m 1779.4186,717.26042 c -21.2162,-13.44304 -43.1457,-25.45947 -67.0689,-33.56185 -13.0406,-4.40787 -25.6973,-3.84087 -38.6282,0.32917 -21.0333,6.78555 -41.1887,15.56471 -61.0149,25.24006 -3.091,0.56689 -4.0238,-2.3778 -5.9626,-3.67635 -17.3753,-29.51986 -40.8412,-53.09548 -70.1964,-70.59879 -5.3772,-3.2008 -5.5602,-5.68824 -3.0361,-10.86423 9.4191,-19.47876 18.0521,-39.28656 24.2157,-60.10045 3.3837,-11.41296 3.4569,-22.56978 -0.1646,-33.96433 -7.7915,-24.49011 -20.192,-46.67571 -33.7813,-68.25776 -2.4144,-3.84086 -5.7431,-6.10881 -10.151,-3.36533 -4.2981,2.67033 -4.0603,6.58435 -1.6642,10.55326 0.8229,1.39002 1.7191,2.74347 2.5604,4.11521 11.3398,18.67396 21.948,37.7137 29.0443,58.52758 3.53,10.352 3.6216,20.42971 0.2378,30.8733 -6.2367,19.27751 -14.3941,37.75031 -22.9355,56.05846 -0.4938,1.079 -0.8413,2.32278 -2.3227,2.67026 -1.7742,-1.88385 -1.573,-4.46277 -2.2131,-6.73067 -5.304,-19.09457 -22.4417,-32.72054 -42.1948,-33.43391 -19.8993,-0.71324 -35.5371,10.57153 -42.2861,30.5807 -0.7316,2.13984 -1.2437,4.18834 -3.7677,5.04793 -21.3077,7.24279 -36.031,21.71007 -45.6698,41.73754 -3.219,2.9081 -3.6946,7.09643 -4.7737,10.91901 -6.3832,22.56966 -3.7128,44.75526 3.1459,66.70316 1.7193,5.5053 3.7495,10.90071 5.6698,16.42431 -2.908,0.91447 -4.8467,-0.47555 -6.8952,-1.07914 -23.5208,-6.82214 -47.2793,-8.50473 -71.0743,-1.97531 -6.6211,1.81078 -11.9435,2.52403 -16.3148,-3.60304 -12.7845,-19.40558 -25.4777,-38.86603 -38.4086,-58.18014 -2.3411,-3.49327 -2.652,-6.78554 -2.1034,-10.82753 3.9323,-28.86138 7.1696,-57.77764 7.0966,-86.96833 0,-4.64558 0.037,-9.30957 -1.2438,-13.84538 -0.384,-1.35344 -0.7316,-2.99957 -2.3045,-3.27387 -2.0302,-0.36589 -2.8532,1.4449 -3.3287,2.9081 -1.5364,4.59069 -3.1459,9.19981 -4.1701,13.91856 -6.5112,29.86734 -9.9681,60.19191 -13.8455,90.47991 -0.9694,7.55367 0.091,14.22957 2.9081,21.14305 7.2245,17.79603 14.0466,35.73841 20.9785,53.64419 0.695,1.77408 2.085,3.5117 1.0608,5.92596 -0.7865,-0.21954 -1.5912,-0.29272 -2.2497,-0.62189 -14.5405,-7.51708 -29.026,-15.16223 -43.6213,-22.56967 -4.4627,-2.2679 -6.9501,-5.46871 -8.3768,-10.35212 -8.5229,-29.09909 -17.1557,-58.16171 -27.581,-86.65733 -2.9813,-8.15726 -5.9625,-16.35112 -10.2789,-23.92309 -1.0608,-1.84737 -1.9388,-4.75547 -4.5359,-4.17017 -2.8167,0.6219 -2.0119,3.67635 -1.8656,5.68813 0.3657,5.43212 0.8413,10.88254 1.7558,16.25977 5.0847,30.12333 12.9492,59.6249 19.936,89.34601 3.2189,13.71733 7.0964,26.44712 20.0822,34.18374 0.3292,0.20112 0.5122,0.60347 0.7683,0.93278 -0.4026,1.71919 5.0297,3.74938 -0.2927,5.19429 -12.8577,-4.20664 -25.6974,-8.52304 -38.61,-12.56515 -3.6396,-1.13401 -6.3282,-3.09103 -8.7974,-5.98083 -17.4484,-20.46628 -35.3908,-40.49375 -55.217,-58.72872 -4.0238,-3.69451 -8.1207,-7.31597 -12.9492,-9.94963 -1.3535,-0.74997 -2.9081,-1.95703 -4.4446,-0.60361 -1.5546,1.33513 -0.6218,3.03615 0,4.48106 2.1767,5.26747 5.3774,9.94964 8.6329,14.57704 16.5524,23.50244 35.1897,45.34058 53.754,67.23346 1.9021,2.24962 4.3164,3.56657 6.8768,4.81024 26.813,12.82126 53.6259,25.62411 80.3658,38.55502 2.5241,1.22549 7.3159,1.62784 4.6639,6.47466 -2.2313,4.07856 -0.7316,11.44942 -9.9131,9.45579 -20.7407,-4.48102 -41.6644,-8.12066 -62.5331,-11.99811 -98.8018,-18.32644 -197.98773,-34.27521 -297.64925,-47.04147 -110.23297,-14.11981 -220.95974,-20.7773 -332.089,-20.41153 -53.79048,0.18295 -107.54438,1.51808 -160.93249,9.14493 -9.40099,1.33513 -18.78369,3.05445 -27.70915,6.43808 -6.43803,2.45085 -7.82806,6.18195 -5.08457,12.43707 1.99358,4.51752 5.12114,8.21216 8.43162,11.7786 9.41927,10.096 20.17371,18.67404 31.22079,26.8496 36.15907,26.75799 74.58606,49.8947 113.8544,71.6962 60.21028,33.43398 121.18861,64.67302 190.19627,76.87235 43.45673,7.68172 86.71222,15.8939 131.08342,14.68674 19.89942,-0.54876 39.50609,-2.61545 57.81422,-11.57751 16.22316,-7.9377 31.00135,-18.23497 46.29162,-27.67251 22.31368,-13.77234 45.92588,-24.08769 72.35474,-25.95337 42.96288,-3.01777 85.77958,-7.48051 128.63268,-11.65057 34.8057,-3.4019 69.5929,-7.02341 104.3802,-10.58984 2.9263,-0.29267 5.5236,-0.78656 6.3832,3.34703 3.6214,17.19242 10.846,32.95828 19.6616,48.04744 0.019,1.88387 1.0974,3.32873 2.0119,4.82857 2.0119,3.29215 -0.9877,2.24961 -2.2862,2.67023 -28.258,-16.05843 -57.4119,-15.4549 -87.0965,-4.62727 -22.2221,8.10234 -42.2677,20.17372 -61.4355,33.8362 -41.4631,29.55653 -77.9515,64.81923 -114.67743,99.86273 -43.25565,41.2801 -83.52982,85.0112 -117.53075,134.4121 -71.18408,103.4109 -128.50449,214.2657 -179.71613,328.4676 v 0 c 0,0 -11.70555,25.9533 -11.70555,25.9533 l 21.3443,-9.3826 v -0.037 c 74.03731,-32.7023 146.44689,-68.6785 216.80801,-108.7882 59.07628,-33.6715 116.89055,-69.3917 169.19965,-113.0679 56.479,-47.1512 106.2823,-101.0881 154.2201,-156.7258 21.6734,-25.1668 41.335,-51.8884 55.3634,-82.2678 16.2413,-35.1897 20.8687,-70.3794 -0.9877,-105.27632 l 2.4142,-1.22547 c 16.5707,10.62643 33.9461,19.60669 53.3333,23.79509 5.2493,1.1339 6.0356,3.3471 5.5235,8.322 -7.2062,68.7514 -14.4124,137.503 -20.3383,206.3827 -1.5364,17.9058 -1.9571,35.9029 -7.2245,53.3515 -6.9684,22.972 -19.0397,43.3287 -32.5742,62.7159 -19.7714,28.2944 -28.0932,59.4055 -27.636,93.6624 0.5853,43.7127 7.1879,86.5659 16.6437,129.0533 5.7431,25.8253 11.0838,51.8152 21.6736,76.287 30.4708,70.3245 67.837,136.863 110.4159,200.5117 11.4677,17.1377 23.6122,33.818 38.0978,48.6146 4.6639,4.7736 9.5106,9.4375 15.7658,12.126 5.926,2.5241 9.7119,0.9511 11.9981,-5.0662 1.4267,-3.7677 2.5607,-7.6817 3.4386,-11.614 5.2125,-23.155 7.2793,-46.7306 8.7608,-70.3428 7.4805,-119.7438 2.78,-239.2315 -8.0293,-358.5546 -6.6941,-73.9093 -17.6497,-147.2881 -29.0625,-220.5939 -11.4496,-73.5071 -24.4537,-146.7396 -38.8477,-219.7161 -1.7376,-8.7976 4.9932,-7.4257 8.9254,-9.6754 5.1212,-2.9264 5.6332,1.7742 6.9867,4.5725 12.8213,26.5752 25.5693,53.2051 38.3357,79.7985 1.2253,2.5424 2.341,5.0847 4.6089,7.0234 22.9904,19.4604 45.8162,39.1221 70.727,56.1498 3.1641,2.1584 6.4928,4.1153 9.913,5.8528 1.829,0.9328 4.2433,2.835 6.0175,0.5487 1.6094,-2.0851 -0.2561,-4.2981 -1.5547,-5.9991 -3.4385,-4.4809 -6.9136,-8.9803 -10.7179,-13.132 -14.1198,-15.3452 -29.0077,-30.0137 -45.304,-42.9263 -11.8336,-9.3645 -19.8628,-20.2286 -22.7708,-34.9337 -0.2377,-5.9808 -3.4203,-11.1386 -4.7189,-16.8084 -0.9145,-4.0421 -3.9322,-7.6085 -2.7251,-12.1079 4.7371,5.2309 9.6571,10.3156 14.138,15.7476 2.9813,3.6031 6.4198,5.6699 10.9739,6.8404 27.7823,7.1879 55.6012,14.2844 83.7127,20.1006 12.6566,2.6154 25.2949,5.5052 38.3172,5.7796 1.7377,0.037 4.097,0.3841 4.719,-1.7559 0.6217,-2.1398 -1.5913,-3.0543 -3.0545,-4.0054 -4.9749,-3.1642 -10.4252,-5.3589 -15.8756,-7.4806 -31.678,-12.3273 -64.3072,-21.7467 -96.8631,-31.422 -4.2068,-1.2437 -7.0782,-3.4202 -9.0535,-7.2793 -7.6635,-14.9245 -15.4366,-29.77587 -23.155,-44.68211 -0.3292,-0.62193 -0.3292,-1.42657 -0.4937,-2.24961 2.7251,-0.64022 4.5906,0.84133 6.566,1.60939 19.6066,7.55378 39.2135,15.16243 58.7653,22.86243 3.091,1.2254 6.1271,1.7923 9.4376,1.39 31.8974,-3.8775 63.8315,-7.5537 95.3268,-14.19296 5.1394,-1.07902 10.2422,-2.37775 15.0708,-4.5358 1.4449,-0.65851 3.2556,-1.33521 2.835,-3.38371 -0.3111,-1.55461 -1.9388,-1.92035 -3.3289,-2.23142 -5.7795,-1.29852 -11.6505,-1.26194 -17.5034,-1.20706 -28.1481,0.31086 -56.0767,3.31044 -83.9321,7.07818 -3.5666,0.47549 -6.566,0.25609 -9.7119,-1.829 -20.5762,-13.58941 -41.2254,-27.08727 -61.9843,-40.38401 -3.6764,-2.35936 -4.7189,-4.46274 -3.2923,-8.79743 6.6576,-20.22859 7.005,-40.85951 3.3472,-61.71003 -1.4268,-8.08404 -4.2068,-15.82063 -6.1638,-23.79512 2.7436,-0.93279 4.3895,0.60364 6.1638,1.31702 20.3199,8.23038 41.2801,13.04066 63.3194,10.84583 29.6479,-2.963 52.7297,-16.44267 65.6971,-44.02382 3.3105,-7.02322 6.9686,-11.26644 14.4308,-14.21112 16.973,-6.71238 26.4287,-24.32557 24.6364,-42.59714 -1.8655,-18.98479 -16.1681,-35.24457 -34.9154,-39.85356 -1.7741,-0.43894 -4.1152,0.256 -5.3588,-2.34108 1.2619,-0.73166 2.3959,-1.51808 3.6397,-2.10338 15.7291,-7.42573 31.8608,-13.86368 47.9924,-20.32005 16.5159,-6.6209 32.1171,-5.37724 48.1207,1.59125 18.235,7.93773 35.5922,17.33878 52.4005,27.89202 3.9506,2.46915 7.8098,2.99957 10.6264,-1.20707 2.7801,-4.15187 1.134,-7.73661 -2.8715,-10.27894 z"
       id="path2" />
    <path
       class="cls-1"
       d="m 2329.9985,2202.1594 c -28.7884,28.9162 -63.594,43.3836 -104.4353,43.3836 -40.8412,0 -75.5919,-14.4674 -104.2339,-43.3836 -28.5139,-28.7882 -42.7799,-63.667 -42.7799,-104.6363 0,-40.9692 14.394,-75.2445 43.1823,-104.0327 28.6602,-28.6602 63.2646,-42.9812 103.8315,-42.9812 40.567,0 75.6469,14.321 104.4353,42.9812 28.7882,28.6419 43.1822,63.3379 43.1822,104.0327 0,40.695 -14.394,75.72 -43.1822,104.6363 z m -194.019,-194.22 c -24.6365,24.7828 -36.9637,54.705 -36.9637,89.7849 0,35.08 12.2541,65.4777 36.7442,90.3884 24.6364,24.911 54.5587,37.3663 89.7849,37.3663 35.2263,0 65.1486,-12.4553 89.785,-37.3663 24.6365,-24.8924 36.9637,-55.0341 36.9637,-90.3884 0,-35.3543 -12.3272,-65.0021 -36.9637,-89.7849 -24.7645,-24.8925 -54.705,-37.348 -89.785,-37.348 -35.0799,0 -64.8008,12.4555 -89.5654,37.348 z m 86.7672,8.2305 c 20.0821,0 34.8056,1.9387 44.1882,5.8344 16.7353,6.9684 25.112,20.631 25.112,41.0059 0,14.4856 -5.2675,25.1303 -15.8025,31.9705 -5.5966,3.6216 -13.3881,6.237 -23.3926,7.8282 12.6564,2.0119 21.9112,7.2977 27.7823,15.8572 5.871,8.5599 8.7974,16.9182 8.7974,25.0755 v 11.8336 c 0,3.7494 0.128,7.7549 0.4023,12.0347 0.2743,4.2798 0.7316,7.0964 1.4083,8.4316 l 1.006,1.9936 h -26.7033 c -0.128,-0.5305 -0.2742,-1.0609 -0.4023,-1.5911 -0.128,-0.5305 -0.2743,-1.1341 -0.4023,-1.8108 l -0.6036,-5.2126 v -12.8029 c 0,-18.6924 -5.0846,-31.0379 -15.2537,-37.0371 -6.0175,-3.475 -16.6073,-5.2126 -31.733,-5.2126 h -22.4966 v 63.6671 h -28.5138 v -161.8835 h 56.6438 z m 30.8,25.5143 c -7.1878,-4.0238 -18.6922,-6.0174 -34.5495,-6.0174 h -24.3621 v 58.6374 h 25.7887 c 12.0897,0 21.1431,-1.2072 27.197,-3.6216 11.1385,-4.426 16.717,-12.8577 16.717,-25.2947 0,-11.7787 -3.6031,-19.68 -10.7728,-23.7037 z"
       id="path3" />
  </g>
</svg>
